<?xml version="1.0" encoding="UTF-8" standalone="no"?>
<!-- Created with Inkscape (http://www.inkscape.org/) -->

<svg
   xmlns:dc="http://purl.org/dc/elements/1.1/"
   xmlns:cc="http://creativecommons.org/ns#"
   xmlns:rdf="http://www.w3.org/1999/02/22-rdf-syntax-ns#"
   xmlns:svg="http://www.w3.org/2000/svg"
   xmlns="http://www.w3.org/2000/svg"
   xmlns:sodipodi="http://sodipodi.sourceforge.net/DTD/sodipodi-0.dtd"
   xmlns:inkscape="http://www.inkscape.org/namespaces/inkscape"
   id="svg3355"
   version="1.1"
   inkscape:version="0.92.5 (2060ec1f9f, 2020-04-08)"
   xml:space="preserve"
   width="297.03888mm"
   height="209.90277mm"
   viewBox="0 0 1052.5 743.75"
   sodipodi:docname="BCIB-v2-Acrylic-3-4.svg"><metadata
     id="metadata3361"><rdf:RDF><cc:Work
         rdf:about=""><dc:format>image/svg+xml</dc:format><dc:type
           rdf:resource="http://purl.org/dc/dcmitype/StillImage" /><dc:title /></cc:Work></rdf:RDF></metadata><defs
     id="defs3359"><clipPath
       clipPathUnits="userSpaceOnUse"
       id="clipPath3369"><path
         d="M 0,0 H 842 V 595 H 0 Z"
         id="path3371"
         inkscape:connector-curvature="0" /></clipPath></defs><sodipodi:namedview
     pagecolor="#ffffff"
     bordercolor="#666666"
     borderopacity="1"
     objecttolerance="10"
     gridtolerance="10"
     guidetolerance="10"
     inkscape:pageopacity="0"
     inkscape:pageshadow="2"
     inkscape:window-width="1366"
     inkscape:window-height="704"
     id="namedview3357"
     showgrid="false"
     inkscape:zoom="0.5"
     inkscape:cx="409.49603"
     inkscape:cy="459.77327"
     inkscape:window-x="0"
     inkscape:window-y="27"
     inkscape:window-maximized="1"
     inkscape:current-layer="g3363"
     showguides="true"
     inkscape:guide-bbox="true"
     units="mm"
     inkscape:document-units="mm"><sodipodi:guide
       position="402.61201,526.6098"
       orientation="1,0"
       id="guide904"
       inkscape:locked="false" /><sodipodi:guide
       position="178.53245,526.15281"
       orientation="1,0"
       id="guide906"
       inkscape:locked="false" /><sodipodi:guide
       position="399.0734,511.76855"
       orientation="1,0"
       id="guide86"
       inkscape:locked="false" /></sodipodi:namedview><g
     id="g3363"
     inkscape:groupmode="layer"
     inkscape:label="BCIB v2 Acrylic"
     transform="matrix(1.25,0,0,-1.25,0,743.75)"><path
   style="color:#000000;clip-rule:nonzero;display:inline;overflow:visible;visibility:visible;opacity:1;isolation:auto;mix-blend-mode:normal;color-interpolation:sRGB;color-interpolation-filters:linearRGB;solid-color:#000000;solid-opacity:1;fill:none;fill-opacity:1;fill-rule:nonzero;stroke:#ff0000;stroke-width:1;stroke-linecap:round;stroke-linejoin:round;stroke-miterlimit:10;stroke-dasharray:none;stroke-dashoffset:0;stroke-opacity:1;color-rendering:auto;image-rendering:auto;shape-rendering:auto;text-rendering:auto;enable-background:accumulate"
   d="m 147.5,147.56055 c -8.77206,-3.23963 -18.51038,1.24551 -21.75,10.01757 -3.06271,8.29299 0.77111,17.54577 8.80078,21.24415 v 68.26562 c -8.02967,3.69836 -11.86349,12.95115 -8.80078,21.24414 3.23962,8.77205 12.97794,13.25722 21.75,10.01758 2.83635,-1.32926 4.65078,-2.24047 6.47379,-4.77039 v -55.64674 l -2.65625,-4.9774 2.65625,-4.97741 v -56.31753 c -2.64547,-2.20344 -3.8613,-2.97564 -6.47379,-4.09959 z m -5.86719,9.68554 c 3.42302,0 6.19922,2.77426 6.19922,6.19727 0,3.42302 -2.77621,6.19726 -6.19922,6.19726 -3.42301,0 -6.19726,-2.77424 -6.19726,-6.19726 0,-3.42301 2.77425,-6.19727 6.19726,-6.19727 z m 0,99.02149 c 3.42301,0 6.19922,2.7762 6.19922,6.19922 0,3.42301 -2.7762,6.19726 -6.19922,6.19726 -3.42301,0 -6.19726,-2.77425 -6.19726,-6.19726 0,-3.42302 2.77425,-6.19922 6.19726,-6.19922 z"
   transform="matrix(0.8,0,0,-0.8,0,595)"
   id="path3547"
   inkscape:connector-curvature="0"
   sodipodi:nodetypes="csccscccccccssssssssss" /><path
   style="color:#000000;clip-rule:nonzero;display:inline;overflow:visible;visibility:visible;opacity:1;isolation:auto;mix-blend-mode:normal;color-interpolation:sRGB;color-interpolation-filters:linearRGB;solid-color:#000000;solid-opacity:1;fill:none;fill-opacity:1;fill-rule:nonzero;stroke:#ff0000;stroke-width:0.80000001;stroke-linecap:round;stroke-linejoin:round;stroke-miterlimit:10;stroke-dasharray:none;stroke-dashoffset:0;stroke-opacity:1;color-rendering:auto;image-rendering:auto;shape-rendering:auto;text-rendering:auto;enable-background:accumulate"
   d="m 339.43377,471.9275 v -45.06558 l 2.125,-3.98193 -2.125,-3.98193 v -45.01534 c 1.78345,-1.69058 3.2254,-2.58353 5.19339,-3.31835 7.01765,-2.59171 14.80674,0.99641 17.39844,8.01406 2.45016,6.63439 -0.61532,14.03662 -7.03907,16.99531 v 54.61251 c 6.42375,2.95869 9.48923,10.36092 7.03907,16.99531 -2.59171,7.01765 -10.38079,10.60577 -17.39844,8.01406 -2.41059,-0.95723 -3.80127,-1.86457 -5.19339,-3.26812 z m 9.88558,-4.48032 c 2.73841,0 4.95937,-2.2194 4.95937,-4.95781 0,-2.73841 -2.22096,-4.95781 -4.95937,-4.95781 -2.73842,0 -4.95782,2.2194 -4.95782,4.95781 0,2.73841 2.21941,4.95781 4.95782,4.95781 z m 0,-79.21719 c 2.73841,0 4.95937,-2.22095 4.95937,-4.95937 0,-2.73841 -2.22096,-4.95781 -4.95937,-4.95781 -2.73841,0 -4.95782,2.2194 -4.95782,4.95781 0,2.73842 2.2194,4.95937 4.95782,4.95937 z"
   id="path3443"
   inkscape:connector-curvature="0"
   sodipodi:nodetypes="ccccccsccsccssssssssss" /><path
   style="color:#000000;clip-rule:nonzero;display:inline;overflow:visible;visibility:visible;opacity:1;isolation:auto;mix-blend-mode:normal;color-interpolation:sRGB;color-interpolation-filters:linearRGB;solid-color:#000000;solid-opacity:1;fill:none;fill-opacity:1;fill-rule:nonzero;stroke:#ff0000;stroke-width:1;stroke-linecap:round;stroke-linejoin:round;stroke-miterlimit:10;stroke-dasharray:none;stroke-dashoffset:0;stroke-opacity:1;color-rendering:auto;image-rendering:auto;shape-rendering:auto;text-rendering:auto;enable-background:accumulate"
   d="m 238.08594,88.753906 -54.83823,56.166014 v 63.6599 l -4.71526,5.50495 -0.22827,1.28437 0.22827,1.35351 4.71526,5.43581 v 63.6599 l 54.83823,56.16406 h 41.82031 v -21.25 c 0,-5.86802 4.75698,-10.625 10.625,-10.625 5.86802,0 10.625,4.75698 10.625,10.625 v 21.25 h 41.82031 l 54.75977,-56.16406 v -63.6599 l 4.87568,-5.58829 0.1472,-1.20103 -0.1472,-1.233 -4.87568,-5.55632 v -63.6599 L 342.97656,88.753906 Z m -45.57691,62.865234 c 1.46702,0 2.65626,1.18925 2.65626,2.65625 v 122.1875 c 0,1.46701 -1.18924,2.65625 -2.65626,2.65625 -1.467,0 -2.65624,-1.18924 -2.65624,-2.65625 v -122.1875 c 0,-1.467 1.18924,-2.65625 2.65624,-2.65625 z m 195.96597,0 c 1.46701,0 2.65625,1.18925 2.65625,2.65625 v 122.1875 c 0,1.46701 -1.18924,2.65625 -2.65625,2.65625 -1.467,0 -2.65625,-1.18924 -2.65625,-2.65625 v -122.1875 c 0,-1.467 1.18925,-2.65625 2.65625,-2.65625 z"
   id="path3421"
   inkscape:connector-curvature="0"
   sodipodi:nodetypes="ccccccccccssscccccccccccssssssssssssss"
   transform="matrix(0.8,0,0,-0.8,0,595)" /><path
   d="m 290.40985,194.90038 c -2.34721,0 -4.25,1.90279 -4.25,4.25 0,2.34721 1.90279,4.25 4.25,4.25 2.34721,0 4.25,-1.90279 4.25,-4.25 0,-2.34721 -1.90279,-4.25 -4.25,-4.25 z"
   style="fill:none;stroke:#ff0000;stroke-width:1.13385797;stroke-linecap:round;stroke-linejoin:round;stroke-miterlimit:10;stroke-dasharray:none;stroke-opacity:1"
   id="path3449"
   inkscape:connector-curvature="0"
   sodipodi:nodetypes="ssscs" /><path
   d="m 290.40985,137.32705 c 2.34721,0 4.25,1.90279 4.25,4.25 0,2.34721 -1.90279,4.25 -4.25,4.25 -2.34721,0 -4.25,-1.90279 -4.25,-4.25 0,-2.34721 1.90279,-4.25 4.25,-4.25 z"
   style="fill:none;stroke:#ff0000;stroke-width:1.13385797;stroke-linecap:round;stroke-linejoin:round;stroke-miterlimit:10;stroke-dasharray:none;stroke-opacity:1"
   id="path3451"
   inkscape:connector-curvature="0"
   sodipodi:nodetypes="ssscs" /><path
   d="m 134.53005,137.32705 c -2.34721,0 -4.25,1.90279 -4.25,4.25 0,2.34721 1.90279,4.25 4.25,4.25 2.34721,0 4.25,-1.90279 4.25,-4.25 0,-2.34721 -1.90279,-4.25 -4.25,-4.25 z"
   style="fill:none;stroke:#ff0000;stroke-width:1.13385797;stroke-linecap:round;stroke-linejoin:round;stroke-miterlimit:10;stroke-dasharray:none;stroke-opacity:1"
   id="path3453"
   inkscape:connector-curvature="0"
   sodipodi:nodetypes="ssscs" /><path
   d="m 134.53005,194.90038 c 2.34721,0 4.25,1.90279 4.25,4.25 0,2.34721 -1.90279,4.25 -4.25,4.25 -2.34721,0 -4.25,-1.90279 -4.25,-4.25 0,-2.34721 1.90279,-4.25 4.25,-4.25 z"
   style="fill:none;stroke:#ff0000;stroke-width:1.13385797;stroke-linecap:round;stroke-linejoin:round;stroke-miterlimit:10;stroke-dasharray:none;stroke-opacity:1"
   id="path3455"
   inkscape:connector-curvature="0"
   sodipodi:nodetypes="ssscs" /><path
   d="m 278.6507,196.73885 c 0,3.75723 1.49255,7.36058 4.14932,10.01735 l 9.66368,9.66368 4.51181,-4.51182 c -0.74896,-4.30348 1.05257,-8.65275 4.62519,-11.16617 v -60.75634 c -3.57262,-2.51343 -5.37415,-6.8627 -4.62519,-11.16618 l -47.5864,-47.586405 h -73.83833 l -47.5864,47.586405 c 0.74896,4.30348 -1.05257,8.65275 -4.62518,11.16618 v 60.75634 c 3.57261,2.51342 5.37414,6.86269 4.62518,11.16617 l 47.5864,47.58641 h 73.83833 l -32.76984,-32.76985 c -2.65677,-2.65676 -4.14932,-6.26011 -4.14932,-10.01734 v -52.94209 c 0,-7.82404 6.34263,-14.16667 14.16666,-14.16667 h 37.84742 c 7.82403,0 14.16667,6.34263 14.16667,14.16667 z"
   style="fill:none;stroke:#ff0000;stroke-width:0.80000001;stroke-linecap:round;stroke-linejoin:round;stroke-miterlimit:10;stroke-dasharray:none;stroke-opacity:1"
   id="path3487"
   inkscape:connector-curvature="0"
   sodipodi:nodetypes="cccccccccccccccccccccc" /><path
   style="color:#000000;clip-rule:nonzero;display:inline;overflow:visible;visibility:visible;opacity:1;isolation:auto;mix-blend-mode:normal;color-interpolation:sRGB;color-interpolation-filters:linearRGB;solid-color:#000000;solid-opacity:1;fill:none;fill-opacity:1;fill-rule:nonzero;stroke:#ff0000;stroke-width:0.80000001;stroke-linecap:round;stroke-linejoin:round;stroke-miterlimit:10;stroke-dasharray:none;stroke-dashoffset:0;stroke-opacity:1;color-rendering:auto;image-rendering:auto;shape-rendering:auto;text-rendering:auto;enable-background:accumulate"
   d="m 551.40665,127.28814 h 34.3625 l 4.5047,-0.59219 4.1984,-1.73907 3.6063,-2.76718 2.76559,-3.6047 1.7391,-4.19844 0.59371,-4.50624 -0.59371,-4.50469 -1.7391,-4.19844 -2.76559,-3.604694 -3.6063,-2.767175 -4.1984,-1.73907 -4.5047,-0.59218 h -34.3625 l -4.50469,0.59218 -4.1984,1.73907 -3.6047,2.767175 -2.76716,3.604694 -1.7391,4.19844 -0.5921,4.50469 0.5921,4.50624 1.7391,4.19844 2.76716,3.6047 3.6047,2.76718 4.1984,1.73907 z"
   id="path4353"
   inkscape:connector-curvature="0" /><path
   inkscape:connector-curvature="0"
   id="path8-5-0"
   style="display:inline;opacity:0.81099997;fill:none;stroke:#00ff00;stroke-width:0.28346458;stroke-linecap:round;stroke-linejoin:round;stroke-miterlimit:4;stroke-dasharray:none"
   d="m 678.00056,117.3008 m 0,83.36455 M 619.05291,259.613 m -83.36455,0 m -58.94764,-58.94765 m 0,-83.36455 m 58.94764,-58.947634 m 83.36455,0 M 551.48599,98.57515 m -3.60522,2.76639 m -2.76639,3.60522 m -1.73901,4.19836 m -0.59315,4.50541 m 0.59315,4.5054 m 1.73901,4.19837 m 2.76639,3.60522 m 3.60522,2.76638 m 4.19837,1.73902 m 4.5054,0.59315 m 34.36176,0 m 4.5054,-0.59315 m 4.19836,-1.73902 m 3.60523,-2.76638 m 2.76638,-3.60522 m 1.73902,-4.19837 m 0.59315,-4.5054 m -0.59315,-4.50541 m -1.73902,-4.19836 m -2.76638,-3.60522 m -3.60523,-2.76639 m -4.19836,-1.73902 m -4.5054,-0.59315 m -34.36176,0 m -4.5054,0.59315 M 547.8657,84.549166 m 0.66794,0.87048 m 0.87048,0.66794 m 1.0137,0.41989 m 1.08783,0.1432 m 1.08783,-0.1432 m 1.01369,-0.41989 m 0.87048,-0.66794 m 0.66794,-0.87048 m 0.41989,-1.01369 m 0.14322,-1.08784 m -0.14321,-1.08783 m -0.41989,-1.01369 m -0.66794,-0.87048 m -0.87048,-0.66794 m -1.01369,-0.41989 m -1.08783,-0.14321 m -1.08784,0.14321 m -1.0137,0.41989 m -0.87048,0.66794 m -0.66794,0.87048 m -0.41988,1.01369 m -0.14322,1.08783 m 0.14321,1.08784 m 56.90292,2.972 m 1.0137,-0.41989 m 0.87048,-0.66794 m 0.66793,-0.87048 m 0.41989,-1.01369 m 0.14323,-1.08784 m -0.14321,-1.08783 m -0.41988,-1.01369 m -0.66795,-0.87048 m -0.87048,-0.66794 m -1.01369,-0.41989 m -1.08783,-0.14321 m -1.08783,0.14321 m -1.0137,0.41989 m -0.87048,0.66794 m -0.66795,0.87048 m -0.41988,1.01369 m -0.14322,1.08783 m 0.14321,1.08784 m 0.41989,1.01369 m 0.66794,0.87048 m 0.87048,0.66794 m 1.0137,0.41989 m 1.08782,0.1432 m -2.97199,151.839834 m 0.87048,0.66794 m 1.01369,0.41989 m 1.08783,0.14321 m 1.08783,-0.14321 m 1.0137,-0.41989 m 0.87048,-0.66794 m 0.66793,-0.87048 m 0.41989,-1.01369 m 0.14322,-1.08782 m -0.14321,-1.08784 m -0.41988,-1.0137 m -0.66795,-0.87048 m -0.87048,-0.66794 m -1.01369,-0.41988 m -1.08783,-0.14321 m -1.08783,0.14321 m -1.0137,0.41988 m -0.87048,0.66794 m -0.66795,0.87048 m -0.41988,1.0137 m -0.14322,1.08784 m 0.14321,1.08782 m 0.41989,1.01369 m -51.08732,0.87048 m 0.87048,0.66794 m 1.0137,0.41989 m 1.08783,0.14321 m 1.08783,-0.14321 m 1.01369,-0.41989 m 0.87048,-0.66794 m 0.66794,-0.87048 m 0.41989,-1.01369 m 0.14322,-1.08782 m -0.14321,-1.08784 m -0.41989,-1.0137 m -0.66794,-0.87048 m -0.87048,-0.66794 m -1.01369,-0.41988 m -1.08783,-0.14321 m -1.08784,0.14321 m -1.0137,0.41988 m -0.87048,0.66794 m -0.66794,0.87048 m -0.41988,1.0137 m -0.14322,1.08784 m 0.14321,1.08782 m 0.41989,1.01369" /><flowRoot
   xml:space="preserve"
   id="flowRoot4354-9"
   style="font-style:normal;font-weight:normal;line-height:0.01%;font-family:sans-serif;letter-spacing:0px;word-spacing:0px;display:inline;opacity:0.81099997;fill:#000000;fill-opacity:1;stroke:none;stroke-width:1px;stroke-linecap:butt;stroke-linejoin:miter;stroke-opacity:1"
   transform="matrix(0.79999999,0,0,-0.79999999,261.01994,495.9862)"><flowRegion
     id="flowRegion4356-3"><rect
       id="rect4358-6"
       width="131.13976"
       height="28.409386"
       x="332.00864"
       y="373.95615" /></flowRegion><flowPara
     id="flowPara4360-0"
     style="font-style:normal;font-variant:normal;font-weight:normal;font-stretch:normal;font-size:14.83558369px;line-height:1.25;font-family:'URW Gothic L';-inkscape-font-specification:'URW Gothic L'">Autodidacts.io</flowPara></flowRoot><g
   transform="matrix(0.43417673,0,0,-0.43417673,623.20331,535.61266)"
   style="display:inline;opacity:0.81099997"
   id="g5868-2-6"><g
     transform="translate(-358.01089,78.948341)"
     id="g4699-6-0-2"
     style="display:inline"><path
       sodipodi:type="star"
       style="display:inline;opacity:1;fill:#000000;fill-opacity:1;stroke:none;stroke-width:2.3440001;stroke-linejoin:miter;stroke-miterlimit:4;stroke-dasharray:none;stroke-opacity:1"
       id="path4462-9-2-6-4-0-6"
       sodipodi:sides="8"
       sodipodi:cx="276.76266"
       sodipodi:cy="677.78284"
       sodipodi:r1="16.172678"
       sodipodi:r2="15.221523"
       sodipodi:arg1="1.1695871"
       sodipodi:arg2="1.5622862"
       inkscape:flatsided="true"
       inkscape:rounded="0"
       inkscape:randomized="0"
       d="m 283.07861,692.67123 -12.37758,0.10534 -8.82676,-8.67779 -0.10534,-12.37758 8.67779,-8.82676 12.37758,-0.10534 8.82676,8.67779 0.10534,12.37759 z" /><path
       sodipodi:type="star"
       style="display:inline;opacity:1;fill:none;fill-opacity:1;stroke:#000000;stroke-width:1.99684703;stroke-linejoin:miter;stroke-miterlimit:4;stroke-dasharray:none;stroke-opacity:1"
       id="path4405-7-2-0-3-3-3-1"
       sodipodi:sides="8"
       sodipodi:cx="276.76266"
       sodipodi:cy="677.78284"
       sodipodi:r1="9.9560261"
       sodipodi:r2="10.435392"
       sodipodi:arg1="0.39327638"
       sodipodi:arg2="0.78597548"
       inkscape:flatsided="true"
       inkscape:rounded="0"
       inkscape:randomized="0"
       d="m 285.95863,681.59815 -5.39127,5.38505 -7.62001,-0.004 -5.38505,-5.39127 0.004,-7.62001 5.39127,-5.38505 7.62001,0.004 5.38505,5.39127 z" /></g><path
     inkscape:connector-curvature="0"
     id="path4505-2-2-5-9-8"
     style="font-style:normal;font-variant:normal;font-weight:normal;font-stretch:normal;font-size:medium;line-height:125%;font-family:'URW Gothic L';-inkscape-font-specification:'URW Gothic L';letter-spacing:0px;word-spacing:0px;display:inline;fill:#000000;fill-opacity:1;stroke:none;stroke-width:1px;stroke-linecap:butt;stroke-linejoin:miter;stroke-opacity:1"
     d="m -65.502241,771.72491 h 4.86351 l 11.73952,-12.82815 11.68361,12.82815 h 4.86351 l -14.08741,-15.34506 13.24888,-14.65494 h -4.80761 l -10.90098,12.01624 -10.95688,-12.01624 h -4.86352 l 13.24889,14.65494 z" /><path
     sodipodi:nodetypes="cccccccc"
     id="path4563-7-5-0-7"
     d="m -164.44646,764.35813 -5.77655,5.92103 -10.99037,-0.006 -7.76687,-7.94271 0.006,-11.22621 7.77584,-7.93355 10.99038,0.006 5.76756,5.93021"
     style="display:inline;opacity:1;fill:none;fill-opacity:1;stroke:#000000;stroke-width:2.89149451;stroke-linecap:round;stroke-linejoin:round;stroke-miterlimit:4;stroke-dasharray:none;stroke-opacity:1"
     inkscape:connector-curvature="0" /><g
     id="g4677-9-8-9"
     transform="translate(-285.30376,141.29931)"
     style="display:inline"><path
       sodipodi:nodetypes="cccccccc"
       style="display:inline;opacity:1;fill:none;fill-opacity:1;stroke:#000000;stroke-width:2.79999995;stroke-linejoin:miter;stroke-miterlimit:4;stroke-dasharray:none;stroke-opacity:1"
       d="m 67.604475,617.47929 1.827364,-1.86374 13.419947,0.003 3.830266,3.91553 -0.003,5.53422 -3.834691,3.91102 -13.419948,-0.003 -1.554119,-1.58872"
       id="path4558-9-9-9-3-2"
       inkscape:connector-curvature="0" /><path
       d="m 66.078202,630.4256 h 2.96 v -29.56 h -2.96 z"
       style="font-style:normal;font-variant:normal;font-weight:normal;font-stretch:normal;font-size:medium;line-height:125%;font-family:'URW Gothic L';-inkscape-font-specification:'URW Gothic L';letter-spacing:0px;word-spacing:0px;display:inline;fill:#000000;fill-opacity:1;stroke:none;stroke-width:1px;stroke-linecap:butt;stroke-linejoin:miter;stroke-opacity:1"
       id="path4595-8-8-8-0"
       inkscape:connector-curvature="0" /><path
       sodipodi:nodetypes="cccccccc"
       id="path4603-1-0-7-2"
       d="m 67.604475,604.11145 1.827364,-1.86374 13.419947,0.003 3.830266,3.91553 -0.003,5.53422 -3.834691,3.91102 -13.419948,-0.003 -1.554119,-1.58872"
       style="display:inline;opacity:1;fill:none;fill-opacity:1;stroke:#000000;stroke-width:2.79999995;stroke-linecap:round;stroke-linejoin:round;stroke-miterlimit:4;stroke-dasharray:none;stroke-opacity:1"
       inkscape:connector-curvature="0" /></g><g
     style="display:inline"
     transform="matrix(0.99953261,0,0,1.0142756,-193.5043,132.2996)"
     id="g5844-3-3"><path
       inkscape:connector-curvature="0"
       id="path5846-1-7"
       d="m 69.60541,617.52544 1.827364,-1.86374 13.419947,0.003 3.830266,3.91553 -0.003,5.53422 -3.834691,3.91102 -13.419948,-0.003 -1.554119,-1.58872"
       style="display:inline;opacity:1;fill:none;fill-opacity:1;stroke:#000000;stroke-width:2.79999995;stroke-linejoin:miter;stroke-miterlimit:4;stroke-dasharray:none;stroke-opacity:1"
       sodipodi:nodetypes="cccccccc" /><path
       inkscape:connector-curvature="0"
       id="path5848-0-5"
       style="font-style:normal;font-variant:normal;font-weight:normal;font-stretch:normal;font-size:medium;line-height:125%;font-family:'URW Gothic L';-inkscape-font-specification:'URW Gothic L';letter-spacing:0px;word-spacing:0px;display:inline;fill:#000000;fill-opacity:1;stroke:none;stroke-width:1px;stroke-linecap:butt;stroke-linejoin:miter;stroke-opacity:1"
       d="m 68.079137,630.4256 h 2.96 v -29.56 h -2.96 z" /><path
       inkscape:connector-curvature="0"
       style="display:inline;opacity:1;fill:none;fill-opacity:1;stroke:#000000;stroke-width:2.79999995;stroke-linecap:round;stroke-linejoin:round;stroke-miterlimit:4;stroke-dasharray:none;stroke-opacity:1"
       d="m 69.60541,604.11145 1.827364,-1.86374 13.419947,0.003 3.830266,3.91553 -0.003,5.53422 -3.834691,3.91102 -13.419948,-0.003 -1.554119,-1.58872"
       id="path5850-0-9"
       sodipodi:nodetypes="cccccccc" /></g><g
     transform="matrix(1.0006978,0,0,0.98206645,-0.96016011,13.825711)"
     id="g5858-5-2"><path
       style="fill:none;fill-rule:evenodd;stroke:#000000;stroke-width:3.0318408;stroke-linecap:round;stroke-linejoin:round;stroke-miterlimit:4;stroke-dasharray:none;stroke-opacity:1"
       d="m -154.39554,742.72178 h 20.43804"
       id="path5852-3-2"
       inkscape:connector-curvature="0"
       sodipodi:nodetypes="cc" /><path
       inkscape:connector-curvature="0"
       id="path5854-1-8"
       d="m -154.39554,770.20884 h 20.43804"
       style="fill:none;fill-rule:evenodd;stroke:#000000;stroke-width:3.0318408;stroke-linecap:round;stroke-linejoin:round;stroke-miterlimit:4;stroke-dasharray:none;stroke-opacity:1"
       sodipodi:nodetypes="cc" /><path
       style="fill:none;fill-rule:evenodd;stroke:#000000;stroke-width:3;stroke-linecap:butt;stroke-linejoin:miter;stroke-miterlimit:4;stroke-dasharray:none;stroke-opacity:1"
       d="m -144.51848,742.72178 v 13.33626 14.1508"
       id="path5856-8-9"
       inkscape:connector-curvature="0"
       sodipodi:nodetypes="ccc" /></g></g><path
   inkscape:connector-curvature="0"
   style="color:#000000;clip-rule:nonzero;display:inline;overflow:visible;visibility:visible;opacity:1;isolation:auto;mix-blend-mode:normal;color-interpolation:sRGB;color-interpolation-filters:linearRGB;solid-color:#000000;solid-opacity:1;fill:none;fill-opacity:1;fill-rule:nonzero;stroke:#ff0000;stroke-width:0.80000001;stroke-linecap:round;stroke-linejoin:round;stroke-miterlimit:10;stroke-dasharray:none;stroke-dashoffset:0;stroke-opacity:1;color-rendering:auto;image-rendering:auto;shape-rendering:auto;text-rendering:auto;enable-background:accumulate"
   d="m 467.29732,119.42674 49.04375,-49.043754 c -2.55424,-6.98018 1.03388,-14.70982 8.01406,-17.26406 6.57,-2.40415 13.88555,0.62619 16.83125,6.97187 h 54.80469 c 2.9457,-6.34568 10.26281,-9.37601 16.83281,-6.97187 6.98017,2.55424 10.56674,10.28388 8.0125,17.26406 l 49.04375,49.043754 v 83.9125 l -49.04375,49.04375 c 2.55424,6.98018 -1.03233,14.70983 -8.0125,17.26406 -6.57,2.40414 -13.88711,-0.6262 -16.83281,-6.97188 h -54.80469 c -2.9457,6.34568 -10.26125,9.37602 -16.83125,6.97188 -6.98018,-2.55423 -10.5683,-10.28388 -8.01406,-17.26406 l -49.04375,-49.04375 z"
   id="path4192-7" /><path
   inkscape:connector-curvature="0"
   style="color:#000000;clip-rule:nonzero;display:inline;overflow:visible;visibility:visible;opacity:1;isolation:auto;mix-blend-mode:normal;color-interpolation:sRGB;color-interpolation-filters:linearRGB;solid-color:#000000;solid-opacity:1;fill:none;fill-opacity:1;fill-rule:nonzero;stroke:#ff0000;stroke-width:0.80000001;stroke-linecap:round;stroke-linejoin:round;stroke-miterlimit:10;stroke-dasharray:none;stroke-dashoffset:0;stroke-opacity:1;color-rendering:auto;image-rendering:auto;shape-rendering:auto;text-rendering:auto;enable-background:accumulate"
   d="m 524.02232,65.757986 c 0,2.73842 2.2194,4.95781 4.95781,4.95781 2.73841,0 4.95782,-2.21939 4.95782,-4.95781 0,-2.73841 -2.21941,-4.95782 -4.95782,-4.95782 -2.73841,0 -4.95781,2.21941 -4.95781,4.95782 z"
   id="path4188-3" /><path
   inkscape:connector-curvature="0"
   style="color:#000000;clip-rule:nonzero;display:inline;overflow:visible;visibility:visible;opacity:1;isolation:auto;mix-blend-mode:normal;color-interpolation:sRGB;color-interpolation-filters:linearRGB;solid-color:#000000;solid-opacity:1;fill:none;fill-opacity:1;fill-rule:nonzero;stroke:#ff0000;stroke-width:0.80000001;stroke-linecap:round;stroke-linejoin:round;stroke-miterlimit:10;stroke-dasharray:none;stroke-dashoffset:0;stroke-opacity:1;color-rendering:auto;image-rendering:auto;shape-rendering:auto;text-rendering:auto;enable-background:accumulate"
   d="m 524.02232,257.00799 c 0,2.73842 2.2194,4.95781 4.95781,4.95781 2.73841,0 4.95782,-2.21939 4.95782,-4.95781 0,-2.73841 -2.21941,-4.95782 -4.95782,-4.95782 -2.73841,0 -4.95781,2.21941 -4.95781,4.95782 z"
   id="path4186-6" /><path
   inkscape:connector-curvature="0"
   style="color:#000000;clip-rule:nonzero;display:inline;overflow:visible;visibility:visible;opacity:1;isolation:auto;mix-blend-mode:normal;color-interpolation:sRGB;color-interpolation-filters:linearRGB;solid-color:#000000;solid-opacity:1;fill:none;fill-opacity:1;fill-rule:nonzero;stroke:#ff0000;stroke-width:0.80000001;stroke-linecap:round;stroke-linejoin:round;stroke-miterlimit:10;stroke-dasharray:none;stroke-dashoffset:0;stroke-opacity:1;color-rendering:auto;image-rendering:auto;shape-rendering:auto;text-rendering:auto;enable-background:accumulate"
   d="m 603.23951,65.757986 c 0,2.73842 2.22096,4.95781 4.95937,4.95781 2.73841,0 4.95782,-2.21939 4.95781,-4.95781 0,-2.73841 -2.2194,-4.95782 -4.95781,-4.95782 -2.73841,0 -4.95937,2.21941 -4.95937,4.95782 z"
   id="path4180-1" /><path
   inkscape:connector-curvature="0"
   style="color:#000000;clip-rule:nonzero;display:inline;overflow:visible;visibility:visible;opacity:1;isolation:auto;mix-blend-mode:normal;color-interpolation:sRGB;color-interpolation-filters:linearRGB;solid-color:#000000;solid-opacity:1;fill:none;fill-opacity:1;fill-rule:nonzero;stroke:#ff0000;stroke-width:0.80000001;stroke-linecap:round;stroke-linejoin:round;stroke-miterlimit:10;stroke-dasharray:none;stroke-dashoffset:0;stroke-opacity:1;color-rendering:auto;image-rendering:auto;shape-rendering:auto;text-rendering:auto;enable-background:accumulate"
   d="m 603.23951,257.00799 c 0,2.73842 2.22096,4.95781 4.95937,4.95781 2.73841,0 4.95781,-2.21939 4.95781,-4.95781 10e-6,-2.73841 -2.2194,-4.95782 -4.95781,-4.95782 -2.73841,0 -4.95937,2.21941 -4.95937,4.95782 z"
   id="path4176-2" /><path
   inkscape:connector-curvature="0"
   style="color:#000000;clip-rule:nonzero;display:inline;overflow:visible;visibility:visible;opacity:1;isolation:auto;mix-blend-mode:normal;color-interpolation:sRGB;color-interpolation-filters:linearRGB;solid-color:#000000;solid-opacity:1;fill:none;fill-opacity:1;fill-rule:nonzero;stroke:#ff0000;stroke-width:0.80000001;stroke-linecap:round;stroke-linejoin:round;stroke-miterlimit:10;stroke-dasharray:none;stroke-dashoffset:0;stroke-opacity:1;color-rendering:auto;image-rendering:auto;shape-rendering:auto;text-rendering:auto;enable-background:accumulate"
   d="m 589.3695,487.77076 c 1.0225,0 2.0447,-0.39153 2.8281,-1.175 l 11.4391,-11.43907 c 1.567,-1.56695 1.567,-4.09086 0,-5.6578 l -41.825,-41.825 c -1.567,-1.56696 -4.0909,-1.56696 -5.6578,0 l -11.4391,11.43905 c -1.5669,1.56695 -1.5669,4.08931 0,5.65626 l 41.8266,41.82656 c 0.7835,0.78347 1.8056,1.175 2.8281,1.175 z"
   id="path4207-3" /><path
   style="color:#000000;clip-rule:nonzero;display:inline;overflow:visible;visibility:visible;opacity:1;isolation:auto;mix-blend-mode:normal;color-interpolation:sRGB;color-interpolation-filters:linearRGB;solid-color:#000000;solid-opacity:1;fill:none;fill-opacity:1;fill-rule:nonzero;stroke:#ff0000;stroke-width:0.80000001;stroke-linecap:round;stroke-linejoin:round;stroke-miterlimit:10;stroke-dasharray:none;stroke-dashoffset:0;stroke-opacity:1;color-rendering:auto;image-rendering:auto;shape-rendering:auto;text-rendering:auto;enable-background:accumulate"
   d="m 583.22566,435.01034 c -2.216,0 -4,-1.78401 -4,-4 v -48.16996 c 0,-2.20921 -0.46488,-6.18942 -6.36368,-6.18942 H 512.4647 l -4.30464,4.37969 c -0.78352,0.78348 -1.8072,1.175 -2.82968,1.175 -1.02248,0 -2.04464,-0.39152 -2.82816,-1.175 l -8,-8 c -1.56696,-1.56695 -1.56696,-4.08931 0,-5.65625 l 24.95472,-24.95625 c 1.09752,-1.09752 2.6064,-1.05705 4.03904,-0.96875 h 74.04848 c 6.59762,0 12,4.953 12,12 v 30.40156 c 0,0.0785 -0.012,0.163 -0.02,0.24531 v 46.91407 c 0,2.21599 -1.784,4 -4,4 z"
   id="path4201-1"
   inkscape:connector-curvature="0"
   sodipodi:nodetypes="ssccccscscccssscsss" /><path
   inkscape:connector-curvature="0"
   id="path8-5-4"
   style="display:inline;opacity:0.81099997;fill:none;stroke:#00ff00;stroke-width:0.28346458;stroke-linecap:round;stroke-linejoin:round;stroke-miterlimit:4;stroke-dasharray:none"
   d="m 680.7782,367.56435 m 0,83.36455 m -58.9476,58.94765 m -83.36458,0 M 479.51838,450.9289 m 0,-83.36455 m 58.94764,-58.94763 m 83.36458,0 m -67.5669,40.22198 m -3.6053,2.76639 m -2.7664,3.60522 m -1.739,4.19836 m -0.5931,4.50541 m 0.5931,4.5054 m 1.739,4.19837 m 2.7664,3.60522 m 3.6053,2.76638 m 4.1983,1.73902 m 4.5054,0.59315 m 34.3618,0 m 4.5054,-0.59315 m 4.1983,-1.73902 m 3.6053,-2.76638 m 2.7664,-3.60522 m 1.739,-4.19837 m 0.5931,-4.5054 m -0.5931,-4.50541 m -1.739,-4.19836 m -2.7664,-3.60522 m -3.6053,-2.76639 m -4.1983,-1.73902 m -4.5054,-0.59315 m -34.3618,0 m -4.5054,0.59315 m -7.8186,-12.28696 m 0.6679,0.87048 m 0.8705,0.66794 m 1.0137,0.41989 m 1.0878,0.1432 m 1.0878,-0.1432 m 1.0137,-0.41989 m 0.8705,-0.66794 m 0.668,-0.87048 m 0.4198,-1.01369 m 0.1433,-1.08784 m -0.1433,-1.08783 m -0.4198,-1.01369 m -0.668,-0.87048 m -0.8705,-0.66794 m -1.0137,-0.41989 m -1.0878,-0.14321 m -1.0878,0.14321 m -1.0137,0.41989 m -0.8705,0.66794 m -0.6679,0.87048 m -0.4199,1.01369 m -0.1432,1.08783 m 0.1432,1.08784 m 56.9029,2.972 m 1.0137,-0.41989 m 0.8705,-0.66794 m 0.6679,-0.87048 m 0.4199,-1.01369 m 0.1432,-1.08784 m -0.1432,-1.08783 m -0.4199,-1.01369 m -0.6679,-0.87048 m -0.8705,-0.66794 m -1.0137,-0.41989 m -1.0878,-0.14321 m -1.0878,0.14321 m -1.0137,0.41989 m -0.8705,0.66794 m -0.668,0.87048 m -0.4199,1.01369 m -0.1432,1.08783 m 0.1432,1.08784 m 0.4199,1.01369 m 0.668,0.87048 m 0.8704,0.66794 m 1.0137,0.41989 m 1.0879,0.1432 m -2.972,151.83983 m 0.8705,0.66794 m 1.0136,0.41989 m 1.0879,0.14321 m 1.0878,-0.14321 m 1.0137,-0.41989 m 0.8705,-0.66794 m 0.6679,-0.87048 m 0.4199,-1.01369 m 0.1432,-1.08782 m -0.1432,-1.08784 m -0.4199,-1.0137 m -0.6679,-0.87048 m -0.8705,-0.66794 m -1.0137,-0.41988 m -1.0878,-0.14321 m -1.0878,0.14321 m -1.0137,0.41988 m -0.8705,0.66794 m -0.668,0.87048 m -0.4199,1.0137 m -0.1432,1.08784 m 0.1432,1.08782 m 0.4199,1.01369 m -51.0873,0.87048 m 0.8705,0.66794 m 1.0137,0.41989 m 1.0878,0.14321 m 1.0878,-0.14321 m 1.0137,-0.41989 m 0.8705,-0.66794 m 0.668,-0.87048 m 0.4198,-1.01369 m 0.1433,-1.08782 m -0.1433,-1.08784 m -0.4198,-1.0137 m -0.668,-0.87048 m -0.8705,-0.66794 m -1.0137,-0.41988 m -1.0878,-0.14321 m -1.0878,0.14321 m -1.0137,0.41988 m -0.8705,0.66794 m -0.6679,0.87048 m -0.4199,1.0137 m -0.1432,1.08784 m 0.1432,1.08782 m 0.4199,1.01369" /><flowRoot
   xml:space="preserve"
   id="flowRoot4354-7"
   style="font-style:normal;font-weight:normal;line-height:0.01%;font-family:sans-serif;letter-spacing:0px;word-spacing:0px;display:inline;opacity:1;fill:#000000;fill-opacity:1;stroke:none;stroke-width:1px;stroke-linecap:butt;stroke-linejoin:miter;stroke-opacity:1"
   transform="matrix(0.56568542,-0.56568542,-0.56568542,-0.56568542,512.49458,851.01548)"><flowRegion
     id="flowRegion4356-8"><rect
       id="rect4358-4"
       width="131.13976"
       height="28.409386"
       x="332.00864"
       y="373.95615" /></flowRegion><flowPara
     id="flowPara4360-5"
     style="font-style:normal;font-variant:normal;font-weight:normal;font-stretch:normal;font-size:14.83558369px;line-height:1.25;font-family:'URW Gothic L';-inkscape-font-specification:'URW Gothic L'">Autodidacts.io</flowPara></flowRoot><g
   transform="matrix(0.30700931,-0.30700931,-0.30700931,-0.30700931,796.6176,622.93268)"
   style="display:inline;opacity:1"
   id="g5868-2-0"><g
     transform="translate(-358.01089,78.948341)"
     id="g4699-6-0-3"
     style="display:inline"><path
       sodipodi:type="star"
       style="display:inline;opacity:1;fill:#000000;fill-opacity:1;stroke:none;stroke-width:2.3440001;stroke-linejoin:miter;stroke-miterlimit:4;stroke-dasharray:none;stroke-opacity:1"
       id="path4462-9-2-6-4-0-61"
       sodipodi:sides="8"
       sodipodi:cx="276.76266"
       sodipodi:cy="677.78284"
       sodipodi:r1="16.172678"
       sodipodi:r2="15.221523"
       sodipodi:arg1="1.1695871"
       sodipodi:arg2="1.5622862"
       inkscape:flatsided="true"
       inkscape:rounded="0"
       inkscape:randomized="0"
       d="m 283.07861,692.67123 -12.37758,0.10534 -8.82676,-8.67779 -0.10534,-12.37758 8.67779,-8.82676 12.37758,-0.10534 8.82676,8.67779 0.10534,12.37759 z" /></g><path
     inkscape:connector-curvature="0"
     id="path4505-2-2-5-9-6"
     style="font-style:normal;font-variant:normal;font-weight:normal;font-stretch:normal;font-size:medium;line-height:125%;font-family:'URW Gothic L';-inkscape-font-specification:'URW Gothic L';letter-spacing:0px;word-spacing:0px;display:inline;fill:#000000;fill-opacity:1;stroke:none;stroke-width:1px;stroke-linecap:butt;stroke-linejoin:miter;stroke-opacity:1"
     d="m -65.502241,771.72491 h 4.86351 l 11.73952,-12.82815 11.68361,12.82815 h 4.86351 l -14.08741,-15.34506 13.24888,-14.65494 h -4.80761 l -10.90098,12.01624 -10.95688,-12.01624 h -4.86352 l 13.24889,14.65494 z" /><path
     sodipodi:nodetypes="cccccccc"
     id="path4563-7-5-0-3"
     d="m -164.44646,764.35813 -5.77655,5.92103 -10.99037,-0.006 -7.76687,-7.94271 0.006,-11.22621 7.77584,-7.93355 10.99038,0.006 5.76756,5.93021"
     style="display:inline;opacity:1;fill:none;fill-opacity:1;stroke:#000000;stroke-width:2.89149451;stroke-linecap:round;stroke-linejoin:round;stroke-miterlimit:4;stroke-dasharray:none;stroke-opacity:1"
     inkscape:connector-curvature="0" /><g
     id="g4677-9-8-2"
     transform="translate(-285.30376,141.29931)"
     style="display:inline"><path
       sodipodi:nodetypes="cccccccc"
       style="display:inline;opacity:1;fill:none;fill-opacity:1;stroke:#000000;stroke-width:2.79999995;stroke-linejoin:miter;stroke-miterlimit:4;stroke-dasharray:none;stroke-opacity:1"
       d="m 67.604475,617.47929 1.827364,-1.86374 13.419947,0.003 3.830266,3.91553 -0.003,5.53422 -3.834691,3.91102 -13.419948,-0.003 -1.554119,-1.58872"
       id="path4558-9-9-9-3-0"
       inkscape:connector-curvature="0" /><path
       d="m 66.078202,630.4256 h 2.96 v -29.56 h -2.96 z"
       style="font-style:normal;font-variant:normal;font-weight:normal;font-stretch:normal;font-size:medium;line-height:125%;font-family:'URW Gothic L';-inkscape-font-specification:'URW Gothic L';letter-spacing:0px;word-spacing:0px;display:inline;fill:#000000;fill-opacity:1;stroke:none;stroke-width:1px;stroke-linecap:butt;stroke-linejoin:miter;stroke-opacity:1"
       id="path4595-8-8-8-6"
       inkscape:connector-curvature="0" /><path
       sodipodi:nodetypes="cccccccc"
       id="path4603-1-0-7-1"
       d="m 67.604475,604.11145 1.827364,-1.86374 13.419947,0.003 3.830266,3.91553 -0.003,5.53422 -3.834691,3.91102 -13.419948,-0.003 -1.554119,-1.58872"
       style="display:inline;opacity:1;fill:none;fill-opacity:1;stroke:#000000;stroke-width:2.79999995;stroke-linecap:round;stroke-linejoin:round;stroke-miterlimit:4;stroke-dasharray:none;stroke-opacity:1"
       inkscape:connector-curvature="0" /></g><g
     style="display:inline"
     transform="matrix(0.99953261,0,0,1.0142756,-193.5043,132.2996)"
     id="g5844-3-5"><path
       inkscape:connector-curvature="0"
       id="path5846-1-5"
       d="m 69.60541,617.52544 1.827364,-1.86374 13.419947,0.003 3.830266,3.91553 -0.003,5.53422 -3.834691,3.91102 -13.419948,-0.003 -1.554119,-1.58872"
       style="display:inline;opacity:1;fill:none;fill-opacity:1;stroke:#000000;stroke-width:2.79999995;stroke-linejoin:miter;stroke-miterlimit:4;stroke-dasharray:none;stroke-opacity:1"
       sodipodi:nodetypes="cccccccc" /><path
       inkscape:connector-curvature="0"
       id="path5848-0-4"
       style="font-style:normal;font-variant:normal;font-weight:normal;font-stretch:normal;font-size:medium;line-height:125%;font-family:'URW Gothic L';-inkscape-font-specification:'URW Gothic L';letter-spacing:0px;word-spacing:0px;display:inline;fill:#000000;fill-opacity:1;stroke:none;stroke-width:1px;stroke-linecap:butt;stroke-linejoin:miter;stroke-opacity:1"
       d="m 68.079137,630.4256 h 2.96 v -29.56 h -2.96 z" /><path
       inkscape:connector-curvature="0"
       style="display:inline;opacity:1;fill:none;fill-opacity:1;stroke:#000000;stroke-width:2.79999995;stroke-linecap:round;stroke-linejoin:round;stroke-miterlimit:4;stroke-dasharray:none;stroke-opacity:1"
       d="m 69.60541,604.11145 1.827364,-1.86374 13.419947,0.003 3.830266,3.91553 -0.003,5.53422 -3.834691,3.91102 -13.419948,-0.003 -1.554119,-1.58872"
       id="path5850-0-7"
       sodipodi:nodetypes="cccccccc" /></g><g
     transform="matrix(1.0006978,0,0,0.98206645,-0.96016011,13.825711)"
     id="g5858-5-6"><path
       style="fill:none;fill-rule:evenodd;stroke:#000000;stroke-width:3.0318408;stroke-linecap:round;stroke-linejoin:round;stroke-miterlimit:4;stroke-dasharray:none;stroke-opacity:1"
       d="m -154.39554,742.72178 h 20.43804"
       id="path5852-3-5"
       inkscape:connector-curvature="0"
       sodipodi:nodetypes="cc" /><path
       inkscape:connector-curvature="0"
       id="path5854-1-6"
       d="m -154.39554,770.20884 h 20.43804"
       style="fill:none;fill-rule:evenodd;stroke:#000000;stroke-width:3.0318408;stroke-linecap:round;stroke-linejoin:round;stroke-miterlimit:4;stroke-dasharray:none;stroke-opacity:1"
       sodipodi:nodetypes="cc" /><path
       style="fill:none;fill-rule:evenodd;stroke:#000000;stroke-width:3;stroke-linecap:butt;stroke-linejoin:miter;stroke-miterlimit:4;stroke-dasharray:none;stroke-opacity:1"
       d="m -144.51848,742.72178 v 13.33626 14.1508"
       id="path5856-8-93"
       inkscape:connector-curvature="0"
       sodipodi:nodetypes="ccc" /></g></g><path
   style="color:#000000;clip-rule:nonzero;display:inline;overflow:visible;visibility:visible;opacity:1;isolation:auto;mix-blend-mode:normal;color-interpolation:sRGB;color-interpolation-filters:linearRGB;solid-color:#000000;solid-opacity:1;fill:none;fill-opacity:1;fill-rule:nonzero;stroke:#ff0000;stroke-width:0.80000001;stroke-linecap:round;stroke-linejoin:round;stroke-miterlimit:10;stroke-dasharray:none;stroke-dashoffset:0;stroke-opacity:1;color-rendering:auto;image-rendering:auto;shape-rendering:auto;text-rendering:auto;enable-background:accumulate"
   d="m 610.4043,302.46094 c -5.59769,-0.0559 -9.22776,4.63541 -12.85547,7.89258 -17.5108,-0.12566 -35.02525,0.25726 -52.53321,-0.19922 -3.56706,-3.1977 -7.1191,-7.77174 -12.64257,-7.58399 -9.37823,-0.83122 -16.14332,9.42465 -13.74706,17.94696 -13.85114,15.65464 -30.09546,29.78223 -44.39477,45.25818 -4.55524,5.09252 -4.18837,11.73969 -4.13747,19.23822 -0.14564,22.61574 0.0764,45.23181 -0.0176,67.84766 15.19888,17.30476 32.76478,32.36852 48.23828,49.40039 -0.30734,5.05478 -0.2452,11.02192 4.20508,14.63476 5.82857,6.27327 17.01224,4.58506 20.9375,-2.97851 8.79947,-2.12124 18.64452,-0.35836 27.85733,-1.00326 9.03595,0.3157 18.46534,-0.66417 27.2621,0.74721 3.49784,5.48941 10.7267,8.63452 17.12666,6.16035 6.83949,-2.02742 9.65483,-9.68854 8.64258,-16.25 2.47188,-6.25183 9.34799,-10.04227 13.56239,-15.27174 11.63882,-11.54881 23.41029,-22.97638 34.55871,-35.00561 0.44477,-27.61921 0.0689,-55.24236 0.18945,-82.86328 -15.19888,-17.30476 -32.76477,-32.36852 -48.23828,-49.40039 0.27695,-4.90307 0.30607,-10.67848 -3.87109,-14.30469 -2.63751,-2.67474 -6.34348,-4.41855 -10.14258,-4.26562 z"
   id="path4192-74"
   inkscape:connector-curvature="0"
   sodipodi:nodetypes="cccccccccccccccccccccc" /><path
   inkscape:connector-curvature="0"
   style="color:#000000;clip-rule:nonzero;display:inline;overflow:visible;visibility:visible;opacity:1;isolation:auto;mix-blend-mode:normal;color-interpolation:sRGB;color-interpolation-filters:linearRGB;solid-color:#000000;solid-opacity:1;fill:none;fill-opacity:1;fill-rule:nonzero;stroke:#ff0000;stroke-width:0.80000001;stroke-linecap:round;stroke-linejoin:round;stroke-miterlimit:10;stroke-dasharray:none;stroke-dashoffset:0;stroke-opacity:1;color-rendering:auto;image-rendering:auto;shape-rendering:auto;text-rendering:auto;enable-background:accumulate"
   d="m 526.79998,316.02154 c 0,2.73842 2.2194,4.95781 4.95781,4.95781 2.73841,0 4.95782,-2.21939 4.95782,-4.95781 0,-2.73841 -2.21941,-4.95782 -4.95782,-4.95782 -2.73841,0 -4.95781,2.21941 -4.95781,4.95782 z"
   id="path4188-5" /><path
   inkscape:connector-curvature="0"
   style="color:#000000;clip-rule:nonzero;display:inline;overflow:visible;visibility:visible;opacity:1;isolation:auto;mix-blend-mode:normal;color-interpolation:sRGB;color-interpolation-filters:linearRGB;solid-color:#000000;solid-opacity:1;fill:none;fill-opacity:1;fill-rule:nonzero;stroke:#ff0000;stroke-width:0.80000001;stroke-linecap:round;stroke-linejoin:round;stroke-miterlimit:10;stroke-dasharray:none;stroke-dashoffset:0;stroke-opacity:1;color-rendering:auto;image-rendering:auto;shape-rendering:auto;text-rendering:auto;enable-background:accumulate"
   d="m 526.79998,507.27154 c 0,2.73842 2.2194,4.95781 4.95781,4.95781 2.73841,0 4.95782,-2.21939 4.95782,-4.95781 0,-2.73841 -2.21941,-4.95782 -4.95782,-4.95782 -2.73841,0 -4.95781,2.21941 -4.95781,4.95782 z"
   id="path4186-2" /><path
   inkscape:connector-curvature="0"
   style="color:#000000;clip-rule:nonzero;display:inline;overflow:visible;visibility:visible;opacity:1;isolation:auto;mix-blend-mode:normal;color-interpolation:sRGB;color-interpolation-filters:linearRGB;solid-color:#000000;solid-opacity:1;fill:none;fill-opacity:1;fill-rule:nonzero;stroke:#ff0000;stroke-width:0.80000001;stroke-linecap:round;stroke-linejoin:round;stroke-miterlimit:10;stroke-dasharray:none;stroke-dashoffset:0;stroke-opacity:1;color-rendering:auto;image-rendering:auto;shape-rendering:auto;text-rendering:auto;enable-background:accumulate"
   d="m 606.0172,316.02154 c 0,2.73842 2.2209,4.95781 4.9593,4.95781 2.7385,0 4.9579,-2.21939 4.9579,-4.95781 0,-2.73841 -2.2194,-4.95782 -4.9579,-4.95782 -2.7384,0 -4.9593,2.21941 -4.9593,4.95782 z"
   id="path4180-5" /><path
   inkscape:connector-curvature="0"
   style="color:#000000;clip-rule:nonzero;display:inline;overflow:visible;visibility:visible;opacity:1;isolation:auto;mix-blend-mode:normal;color-interpolation:sRGB;color-interpolation-filters:linearRGB;solid-color:#000000;solid-opacity:1;fill:none;fill-opacity:1;fill-rule:nonzero;stroke:#ff0000;stroke-width:0.80000001;stroke-linecap:round;stroke-linejoin:round;stroke-miterlimit:10;stroke-dasharray:none;stroke-dashoffset:0;stroke-opacity:1;color-rendering:auto;image-rendering:auto;shape-rendering:auto;text-rendering:auto;enable-background:accumulate"
   d="m 606.0172,507.27154 c 0,2.73842 2.2209,4.95781 4.9593,4.95781 2.7385,0 4.9579,-2.21939 4.9579,-4.95781 0,-2.73841 -2.2194,-4.95782 -4.9579,-4.95782 -2.7384,0 -4.9593,2.21941 -4.9593,4.95782 z"
   id="path4176-4" /><path
   style="color:#000000;clip-rule:nonzero;display:inline;overflow:visible;visibility:visible;opacity:1;isolation:auto;mix-blend-mode:normal;color-interpolation:sRGB;color-interpolation-filters:linearRGB;solid-color:#000000;solid-opacity:1;fill:none;fill-opacity:1;fill-rule:nonzero;stroke:#ff0000;stroke-width:0.80000001;stroke-linecap:round;stroke-linejoin:round;stroke-miterlimit:10;stroke-dasharray:none;stroke-dashoffset:0;stroke-opacity:1;color-rendering:auto;image-rendering:auto;shape-rendering:auto;text-rendering:auto;enable-background:accumulate"
   d="m 390.09386,476.78285 c -0.0104,-8e-4 -0.0207,-0.002 -0.0313,-0.003 -0.26991,-0.0129 -0.54032,-0.0472 -0.81095,-0.0766 -0.16821,-0.0185 -0.33766,-0.0284 -0.50468,-0.0531 -0.26021,-0.0383 -0.51978,-0.0976 -0.77969,-0.15156 -0.17184,-0.0358 -0.34556,-0.0638 -0.51563,-0.10625 -0.25573,-0.0636 -0.50955,-0.14724 -0.76405,-0.22656 -0.1704,-0.0533 -0.34291,-0.0995 -0.51094,-0.15938 -0.0545,-0.0194 -0.10967,-0.0314 -0.16406,-0.0515 l -0.006,-0.0172 c -3.57348,-1.32842 -6.57088,-4.13987 -7.99532,-7.99687 -0.57253,-1.55028 -0.8439,-3.14249 -0.84162,-4.71013 0.098,-31.11105 -0.22244,-55.15734 0.004,-78.8873 -0.0389,-1.6627 0.22939,-3.35788 0.83795,-5.0057 1.42462,-3.85749 4.4228,-6.66866 7.99688,-7.99687 l 0.005,-0.0172 c 0.0544,-0.0201 0.10958,-0.0322 0.16407,-0.0516 0.16803,-0.0599 0.34053,-0.10609 0.51093,-0.15938 0.25451,-0.0794 0.50832,-0.16294 0.76406,-0.22656 0.17006,-0.0424 0.34378,-0.0704 0.51563,-0.10625 0.2599,-0.054 0.51948,-0.11328 0.77969,-0.15156 0.20209,-0.0299 0.4071,-0.0418 0.61093,-0.0625 0.22992,-0.0231 0.4597,-0.0544 0.68907,-0.0656 0.22008,-0.011 6.84272,-0.003 7.06405,-0.003 0.22104,1.6e-4 0.44272,-0.008 0.66251,0.003 0.23301,0.0114 0.46642,0.0435 0.7,0.0672 0.20044,0.0206 0.40281,0.0315 0.60156,0.061 0.26021,0.0382 0.51978,0.0976 0.77969,0.15156 0.17184,0.0358 0.34556,0.0638 0.51562,0.10625 0.25574,0.0636 0.50955,0.14724 0.76406,0.22656 0.1704,0.0533 0.34291,0.0995 0.51094,0.15938 0.0545,0.0194 0.10967,0.0314 0.16406,0.0516 l 0.006,0.0172 c 3.57348,1.32842 6.57088,4.13987 7.99532,7.99687 2.45016,6.63439 -0.61532,14.03662 -7.03906,16.99531 v 54.61251 c 6.42374,2.95868 9.48922,10.36092 7.03906,16.99531 -1.42383,3.85533 -4.4192,6.66617 -7.99063,7.99531 l -0.011,0.0187 c -0.0544,0.0201 -0.10957,0.0322 -0.16406,0.0515 -0.16803,0.0599 -0.34054,0.10609 -0.51094,0.15938 -0.25451,0.0794 -0.50832,0.16294 -0.76406,0.22656 -0.17006,0.0424 -0.34378,0.0704 -0.51563,0.10625 -0.2599,0.054 -0.51948,0.11328 -0.77968,0.15156 -0.16475,0.0244 -0.33252,0.0333 -0.49844,0.0515 -0.27324,0.0298 -0.54624,0.0652 -0.81875,0.0782 -0.21457,0.0105 -0.43111,0.002 -0.64688,0.002 -0.20549,-1.3e-4 -6.81359,0.0224 -7.01718,0.002 z m 7.01093,-8.57656 c 0.17115,0 0.34112,-0.008 0.50782,-0.025 2.50037,-0.25385 4.45156,-2.36555 4.45156,-4.93281 0,-2.56726 -1.95119,-4.67896 -4.45156,-4.93281 -0.1626,-0.0165 -0.32847,-0.0246 -0.49531,-0.025 -0.17116,0 -0.34112,0.008 -0.50782,0.025 -2.50038,0.25385 -4.45156,2.36555 -4.45156,4.93281 0,2.56726 1.95118,4.67896 4.45156,4.93281 0.16319,0.0162 0.32785,0.025 0.49531,0.025 z m 0,-79.21718 c 0.17115,0 0.34112,-0.008 0.50782,-0.025 2.50037,-0.25403 4.45156,-2.36711 4.45156,-4.93438 0,-2.56726 -1.95119,-4.67895 -4.45156,-4.93281 -0.1626,-0.0165 -0.32847,-0.0246 -0.49531,-0.025 -0.17116,0 -0.34112,0.008 -0.50782,0.025 -2.50038,0.25386 -4.45156,2.36555 -4.45156,4.93281 0,2.56727 1.95118,4.68035 4.45156,4.93438 0.16319,0.0162 0.32785,0.025 0.49531,0.025 z"
   id="path3443-6"
   inkscape:connector-curvature="0"
   sodipodi:nodetypes="scccccccccsccscccccccccccccccccccsccsccccccccccsssscccscsssscccscss" /><path
   style="color:#000000;clip-rule:nonzero;display:inline;overflow:visible;visibility:visible;opacity:1;isolation:auto;mix-blend-mode:normal;color-interpolation:sRGB;color-interpolation-filters:linearRGB;solid-color:#000000;solid-opacity:1;fill:none;fill-opacity:1;fill-rule:nonzero;stroke:#ff0000;stroke-width:0.80000001;stroke-linecap:round;stroke-linejoin:round;stroke-miterlimit:10;stroke-dasharray:none;stroke-dashoffset:0;stroke-opacity:1;color-rendering:auto;image-rendering:auto;shape-rendering:auto;text-rendering:auto;enable-background:accumulate"
   d="m 67.331874,478.31685 c 0.0104,-8e-4 0.0207,-0.002 0.0313,-0.003 0.26991,-0.0129 0.54032,-0.0472 0.81095,-0.0766 0.16821,-0.0185 0.33766,-0.0284 0.50468,-0.0531 0.26021,-0.0383 0.51978,-0.0976 0.77969,-0.15156 0.17184,-0.0358 0.34556,-0.0638 0.51563,-0.10625 0.25573,-0.0636 0.50955,-0.14724 0.76405,-0.22656 0.1704,-0.0533 0.34291,-0.0995 0.51094,-0.15938 0.0545,-0.0194 0.10967,-0.0314 0.16406,-0.0515 l 0.006,-0.0172 c 3.573484,-1.32842 6.570884,-4.13987 7.995324,-7.99687 0.57253,-1.55028 0.8439,-3.14249 0.84162,-4.71013 -0.098,-31.11105 0.22244,-55.15734 -0.004,-78.8873 0.0389,-1.6627 -0.22939,-3.35788 -0.83795,-5.0057 -1.42462,-3.85749 -4.4228,-6.66866 -7.99688,-7.99687 l -0.005,-0.0172 c -0.0544,-0.0201 -0.10958,-0.0322 -0.16407,-0.0516 -0.16803,-0.0599 -0.34053,-0.10609 -0.51093,-0.15938 -0.25451,-0.0794 -0.50832,-0.16294 -0.76406,-0.22656 -0.17006,-0.0424 -0.34378,-0.0704 -0.51563,-0.10625 -0.2599,-0.054 -0.51948,-0.11328 -0.77969,-0.15156 -0.20209,-0.0299 -0.4071,-0.0418 -0.61093,-0.0625 -0.22992,-0.0231 -0.4597,-0.0544 -0.68907,-0.0656 -0.22008,-0.011 -6.84272,-0.003 -7.06405,-0.003 -0.22104,1.6e-4 -0.44272,-0.008 -0.66251,0.003 -0.23301,0.0114 -0.46642,0.0435 -0.7,0.0672 -0.20044,0.0206 -0.40281,0.0315 -0.60156,0.061 -0.26021,0.0382 -0.51978,0.0976 -0.77969,0.15156 -0.17184,0.0358 -0.34556,0.0638 -0.51562,0.10625 -0.25574,0.0636 -0.50955,0.14724 -0.76406,0.22656 -0.1704,0.0533 -0.34291,0.0995 -0.51094,0.15937 -0.0545,0.0194 -0.10967,0.0314 -0.16406,0.0516 l -0.006,0.0172 c -3.57348,1.32843 -6.57088,4.13988 -7.99532,7.99688 -2.45016,6.63439 0.61532,14.03662 7.03906,16.99531 v 54.61251 c -6.42374,2.95868 -9.48922,10.36092 -7.03906,16.99531 1.42383,3.85533 4.4192,6.66617 7.99063,7.99531 l 0.011,0.0187 c 0.0544,0.0201 0.10957,0.0322 0.16406,0.0515 0.16803,0.0599 0.34054,0.10609 0.51094,0.15938 0.25451,0.0794 0.50832,0.16294 0.76406,0.22656 0.17006,0.0424 0.34378,0.0704 0.51563,0.10625 0.2599,0.054 0.51948,0.11328 0.77968,0.15156 0.16475,0.0244 0.33252,0.0333 0.49844,0.0515 0.27324,0.0298 0.54624,0.0652 0.81875,0.0782 0.21457,0.0105 0.43111,0.002 0.64688,0.002 0.20549,-1.3e-4 6.81359,0.0224 7.01718,0.002 z m -7.01093,-8.57656 c -0.17115,0 -0.34112,-0.008 -0.50782,-0.025 -2.50037,-0.25385 -4.45156,-2.36555 -4.45156,-4.93281 0,-2.56726 1.95119,-4.67896 4.45156,-4.93281 0.1626,-0.0165 0.32847,-0.0246 0.49531,-0.025 0.17116,0 0.34112,0.008 0.50782,0.025 2.50038,0.25385 4.45156,2.36555 4.45156,4.93281 0,2.56726 -1.95118,4.67896 -4.45156,4.93281 -0.16319,0.0162 -0.32785,0.025 -0.49531,0.025 z m 0,-79.21718 c -0.17115,0 -0.34112,-0.008 -0.50782,-0.025 -2.50037,-0.25403 -4.45156,-2.36711 -4.45156,-4.93438 0,-2.56726 1.95119,-4.67895 4.45156,-4.93281 0.1626,-0.0165 0.32847,-0.0246 0.49531,-0.025 0.17116,0 0.34112,0.008 0.50782,0.025 2.50038,0.25386 4.45156,2.36555 4.45156,4.93281 0,2.56727 -1.95118,4.68035 -4.45156,4.93438 -0.16319,0.0162 -0.32785,0.025 -0.49531,0.025 z"
   id="path3443-6-7"
   inkscape:connector-curvature="0"
   sodipodi:nodetypes="scccccccccsccscccccccccccccccccccsccsccccccccccsssscccscsssscccscss" /><text
   xml:space="preserve"
   style="font-style:normal;font-variant:normal;font-weight:normal;font-stretch:normal;font-size:20px;line-height:1.25;font-family:Roboto;-inkscape-font-specification:Roboto;letter-spacing:0px;word-spacing:0px;fill:#000000;fill-opacity:1;stroke:none;stroke-width:0.75"
   x="-1219.7593"
   y="-536.69403"
   id="text892"
   transform="scale(1,-1)"><tspan
     sodipodi:role="line"
     id="tspan890"
     x="-1219.7593"
     y="-536.69403"
     style="stroke-width:0.75">Please cut 6 of these </tspan></text>





<text
   xml:space="preserve"
   style="font-style:normal;font-variant:normal;font-weight:normal;font-stretch:normal;font-size:20px;line-height:1.25;font-family:'Besley*';-inkscape-font-specification:'Besley*';letter-spacing:0px;word-spacing:0px;fill:#000000;fill-opacity:1;stroke:none;stroke-width:0.75"
   x="30"
   y="-556.5"
   id="text897"
   transform="scale(1,-1)"><tspan
     sodipodi:role="line"
     id="tspan895"
     x="30"
     y="-556.5"
     style="font-style:normal;font-variant:normal;font-weight:normal;font-stretch:normal;font-family:'Liberation Serif';-inkscape-font-specification:'Liberation Serif';stroke-width:0.75">Please cut on 3mm acrylic</tspan></text>

<text
   xml:space="preserve"
   style="font-style:normal;font-variant:normal;font-weight:normal;font-stretch:normal;font-size:20px;line-height:1.25;font-family:'Besley*';-inkscape-font-specification:'Besley*';letter-spacing:0px;word-spacing:0px;fill:#000000;fill-opacity:1;stroke:none;stroke-width:0.75"
   x="83.040329"
   y="-23.290001"
   id="text897-3"
   transform="scale(1,-1)"><tspan
     sodipodi:role="line"
     id="tspan895-6"
     x="83.040329"
     y="-23.290001"
     style="font-style:normal;font-variant:normal;font-weight:normal;font-stretch:normal;font-family:'Liberation Serif';-inkscape-font-specification:'Liberation Serif';stroke-width:0.75">And 30 of these </tspan></text>

<text
   xml:space="preserve"
   style="font-style:normal;font-variant:normal;font-weight:normal;font-stretch:normal;font-size:20px;line-height:1.25;font-family:'Besley*';-inkscape-font-specification:'Besley*';letter-spacing:0px;word-spacing:0px;fill:#000000;fill-opacity:1;stroke:none;stroke-width:0.75"
   x="430.69699"
   y="-22.220001"
   id="text897-3-7"
   transform="scale(1,-1)"><tspan
     sodipodi:role="line"
     id="tspan895-6-5"
     x="430.69699"
     y="-22.220001"
     style="font-style:normal;font-variant:normal;font-weight:normal;font-stretch:normal;font-family:'Liberation Serif';-inkscape-font-specification:'Liberation Serif';stroke-width:0.75">And 30 of these </tspan></text>

<text
   xml:space="preserve"
   style="font-style:normal;font-variant:normal;font-weight:normal;font-stretch:normal;font-size:20px;line-height:1.25;font-family:'Besley*';-inkscape-font-specification:'Besley*';letter-spacing:0px;word-spacing:0px;fill:#000000;fill-opacity:1;stroke:none;stroke-width:0.75"
   x="15.606925"
   y="-298.22"
   id="text897-3-7-3"
   transform="scale(1,-1)"><tspan
     sodipodi:role="line"
     id="tspan895-6-5-5"
     x="15.606925"
     y="-298.22"
     style="font-style:normal;font-variant:normal;font-weight:normal;font-stretch:normal;font-family:'Liberation Serif';-inkscape-font-specification:'Liberation Serif';stroke-width:0.75">Please cut 30 each of these five items </tspan><tspan
     sodipodi:role="line"
     x="15.606925"
     y="-272.47241"
     style="font-style:normal;font-variant:normal;font-weight:normal;font-stretch:normal;font-family:'Liberation Serif';-inkscape-font-specification:'Liberation Serif';stroke-width:0.75"
     id="tspan971">(if possible, with protective film removed)</tspan></text>

<text
   xml:space="preserve"
   style="font-style:normal;font-variant:normal;font-weight:normal;font-stretch:normal;font-size:20px;line-height:1.25;font-family:'Besley*';-inkscape-font-specification:'Besley*';letter-spacing:0px;word-spacing:0px;fill:#000000;fill-opacity:1;stroke:none;stroke-width:0.75"
   x="413.10693"
   y="-283.22"
   id="text897-3-7-6"
   transform="scale(1,-1)"><tspan
     sodipodi:role="line"
     id="tspan895-6-5-2"
     x="413.10693"
     y="-283.22"
     style="font-style:normal;font-variant:normal;font-weight:normal;font-stretch:normal;font-family:'Liberation Serif';-inkscape-font-specification:'Liberation Serif';stroke-width:0.75">And 10 of these </tspan></text>

</g><g
     inkscape:groupmode="layer"
     id="layer2"
     inkscape:label="inner circle"
     sodipodi:insensitive="true" /><g
     inkscape:groupmode="layer"
     id="layer3"
     inkscape:label="star" /><g
     inkscape:groupmode="layer"
     id="layer1"
     inkscape:label="Rotate" /></svg>